<svg width="34" height="34" viewBox="0 0 34 34" fill="none" xmlns="http://www.w3.org/2000/svg">
<path d="M32.1576 0H1.3399C0.598768 0 0 0.598768 0 1.3399V32.1576C0 32.8988 0.598768 33.4975 1.3399 33.4975H32.1576C32.8988 33.4975 33.4975 32.8988 33.4975 32.1576V1.3399C33.4975 0.598768 32.8988 0 32.1576 0ZM28.2887 9.77709H25.6131C23.5153 9.77709 23.1091 10.7736 23.1091 12.2392V15.4675H28.117L27.4638 20.5214H23.1091V33.4975H17.8877V20.5256H13.5204V15.4675H17.8877V11.7409C17.8877 7.41552 20.5298 5.05813 24.3904 5.05813C26.2411 5.05813 27.8281 5.19631 28.2929 5.25911V9.77709H28.2887Z" fill="white"/>
</svg>
