<svg width="34" height="34" viewBox="0 0 34 34" fill="none" xmlns="http://www.w3.org/2000/svg">
<path fill-rule="evenodd" clip-rule="evenodd" d="M10.3457 0.100493C12.1317 0.0182714 12.7011 0 17.2507 0C21.8003 0 22.3698 0.019794 24.1543 0.100493C25.9388 0.181191 27.1569 0.46592 28.2227 0.878549C29.3388 1.30031 30.3513 1.95961 31.1887 2.81227C32.0414 3.64819 32.6992 4.6592 33.1194 5.7768C33.5336 6.84263 33.8168 8.06073 33.899 9.84219C33.9812 11.6313 33.9995 12.2007 33.9995 16.7488C33.9995 21.2983 33.9797 21.8678 33.899 23.6538C33.8183 25.4353 33.5336 26.6534 33.1194 27.7192C32.6992 28.837 32.0403 29.8497 31.1887 30.6868C30.3513 31.5395 29.3388 32.1972 28.2227 32.6175C27.1569 33.0316 25.9388 33.3148 24.1573 33.397C22.3698 33.4793 21.8003 33.4975 17.2507 33.4975C12.7011 33.4975 12.1317 33.4777 10.3457 33.397C8.5642 33.3163 7.34611 33.0316 6.28028 32.6175C5.16256 32.1972 4.14987 31.5383 3.3127 30.6868C2.46061 29.8504 1.80122 28.8382 1.3805 27.7207C0.967873 26.6549 0.684667 25.4368 0.602446 23.6553C0.520224 21.8663 0.501953 21.2968 0.501953 16.7488C0.501953 12.1992 0.521747 11.6297 0.602446 9.84523C0.683144 8.06073 0.967873 6.84263 1.3805 5.7768C1.80184 4.65933 2.46174 3.64714 3.31422 2.81075C4.1502 1.95885 5.16187 1.29947 6.27876 0.878549C7.34459 0.46592 8.56268 0.182714 10.3441 0.100493H10.3457ZM24.0187 3.11527C22.2525 3.03457 21.7226 3.01782 17.2507 3.01782C12.7788 3.01782 12.2489 3.03457 10.4827 3.11527C8.84893 3.18988 7.96277 3.46243 7.37199 3.69234C6.59089 3.99687 6.03209 4.35773 5.44589 4.94393C4.8902 5.48454 4.46255 6.14266 4.1943 6.87004C3.96438 7.46081 3.69183 8.34698 3.61722 9.98074C3.53653 11.747 3.51978 12.2768 3.51978 16.7488C3.51978 21.2207 3.53653 21.7506 3.61722 23.5168C3.69183 25.1506 3.96438 26.0367 4.1943 26.6275C4.46228 27.3538 4.89013 28.0131 5.44589 28.5536C5.98641 29.1094 6.64571 29.5372 7.37199 29.8052C7.96277 30.0351 8.84893 30.3077 10.4827 30.3823C12.2489 30.463 12.7773 30.4797 17.2507 30.4797C21.7242 30.4797 22.2525 30.463 24.0187 30.3823C25.6525 30.3077 26.5387 30.0351 27.1295 29.8052C27.9106 29.5007 28.4694 29.1398 29.0556 28.5536C29.6113 28.0131 30.0392 27.3538 30.3071 26.6275C30.5371 26.0367 30.8096 25.1506 30.8842 23.5168C30.9649 21.7506 30.9817 21.2207 30.9817 16.7488C30.9817 12.2768 30.9649 11.747 30.8842 9.98074C30.8096 8.34698 30.5371 7.46081 30.3071 6.87004C30.0026 6.08894 29.6418 5.53014 29.0556 4.94393C28.5149 4.38829 27.8568 3.96064 27.1295 3.69234C26.5387 3.46243 25.6525 3.18988 24.0187 3.11527ZM15.1114 21.912C16.3062 22.4093 17.6365 22.4764 18.8752 22.1019C20.114 21.7273 21.1842 20.9343 21.9032 19.8583C22.6222 18.7823 22.9454 17.4901 22.8175 16.2023C22.6896 14.9145 22.1185 13.7111 21.2019 12.7976C20.6176 12.2136 19.9111 11.7665 19.1332 11.4884C18.3553 11.2102 17.5254 11.108 16.7033 11.1891C15.8812 11.2702 15.0873 11.5326 14.3788 11.9573C13.6702 12.382 13.0647 12.9586 12.6057 13.6455C12.1467 14.3323 11.8457 15.1124 11.7244 15.9295C11.6031 16.7467 11.6645 17.5806 11.9041 18.3711C12.1438 19.1617 12.5557 19.8893 13.1103 20.5016C13.6649 21.1139 14.3483 21.5955 15.1114 21.912ZM11.1633 10.6614C11.9627 9.86194 12.9118 9.22781 13.9562 8.79518C15.0007 8.36254 16.1202 8.13986 17.2507 8.13986C18.3813 8.13986 19.5007 8.36254 20.5452 8.79518C21.5897 9.22781 22.5387 9.86194 23.3381 10.6614C24.1375 11.4608 24.7717 12.4098 25.2043 13.4543C25.637 14.4988 25.8596 15.6182 25.8596 16.7488C25.8596 17.8793 25.637 18.9988 25.2043 20.0433C24.7717 21.0877 24.1375 22.0368 23.3381 22.8362C21.7237 24.4507 19.5339 25.3577 17.2507 25.3577C14.9675 25.3577 12.7778 24.4507 11.1633 22.8362C9.54882 21.2217 8.64182 19.032 8.64182 16.7488C8.64182 14.4655 9.54882 12.2758 11.1633 10.6614ZM27.7689 9.42194C27.967 9.23507 28.1256 9.01035 28.2353 8.76109C28.345 8.51183 28.4036 8.24309 28.4076 7.97078C28.4115 7.69848 28.3608 7.42815 28.2584 7.1758C28.1561 6.92344 28.0041 6.69419 27.8115 6.50163C27.619 6.30906 27.3897 6.15709 27.1374 6.05471C26.885 5.95233 26.6147 5.90162 26.3424 5.90559C26.0701 5.90956 25.8013 5.96812 25.5521 6.07782C25.3028 6.18751 25.0781 6.3461 24.8912 6.5442C24.5278 6.92947 24.3288 7.44121 24.3365 7.97078C24.3442 8.50036 24.558 9.00609 24.9326 9.38059C25.3071 9.7551 25.8128 9.96891 26.3424 9.97663C26.8719 9.98435 27.3837 9.78538 27.7689 9.42194Z" fill="white"/>
</svg>
