<svg width="169" height="55" viewBox="0 0 169 55" fill="none" xmlns="http://www.w3.org/2000/svg">
<path d="M26.9254 16.6919C26.9254 24.1142 21.5815 26.7189 15.3437 26.7189C11.153 26.7189 7.75325 25.5627 5.64296 23.3533V26.3867H0V0H5.64296V9.99385C7.75325 7.78444 11.153 6.62824 15.3437 6.62824C21.5815 6.62824 26.9254 9.26624 26.9254 16.6885V16.6919ZM21.2492 16.6919C21.2492 12.8312 18.5108 11.3494 13.4627 11.3494C8.41459 11.3494 5.64296 12.8345 5.64296 16.6919C5.64296 20.5492 8.41459 22.0044 13.4627 22.0044C18.5108 22.0044 21.2492 20.5193 21.2492 16.6919Z" fill="#1F1F1F"/>
<path d="M53.9168 16.5955V26.3934H48.2406V23.9846C44.8077 25.6658 41.0158 26.7223 36.4263 26.7223C30.9827 26.7223 27.583 24.9747 27.583 20.5858C27.583 15.539 33.1263 13.9542 39.2976 13.9542C42.6309 13.9542 45.6983 14.4825 48.2406 15.3397C48.2406 11.6451 43.4883 11.3494 40.8496 11.3494C38.2109 11.3494 35.2067 11.582 31.2154 12.7681L29.2015 8.64498C33.1628 7.3592 37.0544 6.63159 41.1122 6.63159C49.2277 6.63159 53.8504 9.23637 53.9135 16.5955H53.9168ZM48.2406 18.8382C46.2599 18.2102 43.588 17.6521 39.9922 17.6521C35.7683 17.6521 33.2293 18.3764 33.2293 20.3565C33.2293 22.3367 35.1103 22.5659 38.0481 22.5659C40.9859 22.5659 45.3394 21.6091 48.244 20.3565V18.8382H48.2406Z" fill="#1F1F1F"/>
<path d="M26.9254 44.6003C26.9254 52.0226 21.5815 54.6274 15.3437 54.6274C11.153 54.6274 7.75325 53.4712 5.64296 51.2618V54.2951H0V27.9084H5.64296V37.9023C7.75325 35.6929 11.153 34.5367 15.3437 34.5367C21.5815 34.5367 26.9254 37.1747 26.9254 44.597V44.6003ZM21.2492 44.6003C21.2492 40.7397 18.5108 39.2579 13.4627 39.2579C8.41459 39.2579 5.64296 40.743 5.64296 44.6003C5.64296 48.4576 8.41459 49.9129 13.4627 49.9129C18.5108 49.9129 21.2492 48.4277 21.2492 44.6003Z" fill="#1F1F1F"/>
<path d="M27.8828 44.6003C27.8828 37.4438 33.2931 34.54 41.3455 34.54C49.3978 34.54 54.8082 37.4438 54.8082 44.6003C54.8082 51.7568 49.3646 54.6274 41.3455 54.6274C33.3264 54.6274 27.8828 51.7236 27.8828 44.6003ZM49.132 44.6003C49.132 40.5437 46.5564 39.2579 41.3455 39.2579C36.1346 39.2579 33.5258 40.5437 33.5258 44.6003C33.5258 48.657 36.098 49.9129 41.3455 49.9129C46.593 49.9129 49.132 48.6271 49.132 44.6003Z" fill="#1F1F1F"/>
<path d="M83.3151 34.8688V54.2983H77.6722V50.8995C74.9005 53.0757 71.0721 54.6273 66.353 54.6273C61.172 54.6273 56.3233 52.78 56.2568 45.6202L56.3233 34.8655H61.9995V43.4772C61.9995 47.6003 63.3853 49.7433 68.0379 49.7433C71.8331 49.7433 75.9241 47.7964 77.6722 45.7531V34.8655H83.3151V34.8688Z" fill="#1F1F1F"/>
<path d="M98.2635 34.54C105.522 34.54 110.636 36.9156 111.56 42.6235H105.784C105.026 40.1151 102.351 39.2579 98.2601 39.2579C93.4114 39.2579 90.4404 40.5437 90.4404 44.6003C90.4404 48.657 93.4114 49.9129 98.2601 49.9129C102.351 49.9129 105.023 49.0557 105.784 46.5473H111.56C110.636 52.2552 105.522 54.6307 98.2635 54.6307C90.2111 54.6307 84.8008 51.7269 84.8008 44.6037C84.8008 37.4804 90.2111 34.5434 98.2635 34.5434V34.54Z" fill="#1F1F1F"/>
<path d="M140.103 43.5471L140.037 54.3018H134.361V45.6934C134.361 41.5703 132.975 39.424 128.322 39.424C124.527 39.424 120.436 41.3709 118.688 43.4142V54.3018H113.045V27.9084H118.688V38.2678C121.46 36.0916 125.288 34.54 130.007 34.54C135.188 34.54 140.037 36.3873 140.103 43.5471Z" fill="#1F1F1F"/>
<path d="M162.213 47.338H167.823C166.537 52.2851 161.718 54.6274 154.526 54.6274C147.335 54.6274 141.393 51.7236 141.393 44.6003C141.393 37.4771 146.969 34.54 154.855 34.54C162.246 34.54 168.152 37.0784 168.152 45.9193H147.165C147.793 49.0192 150.761 50.0425 154.523 50.0425C158.285 50.0425 160.791 49.3182 162.21 47.338H162.213ZM147.365 42.3245H162.113C161.156 39.5868 158.385 38.8293 154.822 38.8293C150.96 38.8293 148.255 39.5868 147.365 42.3245Z" fill="#1F1F1F"/>
<path d="M168.289 22.0576H55.8848V26.3901H168.289V22.0576Z" fill="#101EF1"/>
</svg>
