<svg width="170" height="67" viewBox="0 0 170 67" fill="none" xmlns="http://www.w3.org/2000/svg">
<path d="M28.3443 18.3398C28.3443 25.7621 23.0004 28.3669 16.7626 28.3669C12.5719 28.3669 9.1722 27.2107 7.06191 25.0013V28.0346H1.41895V1.64795H7.06191V11.6418C9.1722 9.43239 12.5719 8.27619 16.7626 8.27619C23.0004 8.27619 28.3443 10.9142 28.3443 18.3365V18.3398ZM22.6681 18.3398C22.6681 14.4792 19.9297 12.9973 14.8816 12.9973C9.83354 12.9973 7.06191 14.4825 7.06191 18.3398C7.06191 22.1971 9.83354 23.6524 14.8816 23.6524C19.9297 23.6524 22.6681 22.1672 22.6681 18.3398Z" fill="white"/>
<path d="M55.3358 18.2435V28.0413H49.6596V25.6326C46.2266 27.3137 42.4347 28.3702 37.8453 28.3702C32.4017 28.3702 29.002 26.6226 29.002 22.2337C29.002 17.187 34.5452 15.6022 40.7166 15.6022C44.0498 15.6022 47.1173 16.1304 49.6596 16.9876C49.6596 13.2931 44.9073 12.9974 42.2686 12.9974C39.6299 12.9974 36.6256 13.23 32.6343 14.4161L30.6204 10.2929C34.5818 9.00715 38.4734 8.27954 42.5311 8.27954C50.6466 8.27954 55.2693 10.8843 55.3324 18.2435H55.3358ZM49.6596 20.4861C47.6789 19.8582 45.007 19.3 41.4112 19.3C37.1872 19.3 34.6482 20.0243 34.6482 22.0045C34.6482 23.9846 36.5292 24.2139 39.467 24.2139C42.4048 24.2139 46.7583 23.257 49.6629 22.0045V20.4861H49.6596Z" fill="white"/>
<path d="M28.3443 46.2481C28.3443 53.6704 23.0004 56.2752 16.7626 56.2752C12.5719 56.2752 9.1722 55.119 7.06191 52.9096V55.943H1.41895V29.5563H7.06191V39.5501C9.1722 37.3407 12.5719 36.1845 16.7626 36.1845C23.0004 36.1845 28.3443 38.8225 28.3443 46.2448V46.2481ZM22.6681 46.2481C22.6681 42.3875 19.9297 40.9057 14.8816 40.9057C9.83354 40.9057 7.06191 42.3908 7.06191 46.2481C7.06191 50.1055 9.83354 51.5607 14.8816 51.5607C19.9297 51.5607 22.6681 50.0756 22.6681 46.2481Z" fill="white"/>
<path d="M29.3018 46.2482C29.3018 39.0917 34.7121 36.1879 42.7644 36.1879C50.8168 36.1879 56.2271 39.0917 56.2271 46.2482C56.2271 53.4047 50.7836 56.2752 42.7644 56.2752C34.7453 56.2752 29.3018 53.3714 29.3018 46.2482ZM50.5509 46.2482C50.5509 42.1915 47.9754 40.9057 42.7644 40.9057C37.5535 40.9057 34.9447 42.1915 34.9447 46.2482C34.9447 50.3048 37.5169 51.5607 42.7644 51.5607C48.0119 51.5607 50.5509 50.2749 50.5509 46.2482Z" fill="white"/>
<path d="M84.7341 36.5168V55.9463H79.0911V52.5475C76.3195 54.7236 72.491 56.2752 67.772 56.2752C62.5909 56.2752 57.7422 54.4279 57.6758 47.2681L57.7422 36.5134H63.4184V45.1252C63.4184 49.2483 64.8043 51.3912 69.4569 51.3912C73.2521 51.3912 77.3431 49.4443 79.0911 47.401V36.5134H84.7341V36.5168Z" fill="white"/>
<path d="M99.6824 36.1879C106.94 36.1879 112.055 38.5634 112.979 44.2713H107.203C106.445 41.7629 103.77 40.9057 99.6791 40.9057C94.8304 40.9057 91.8594 42.1915 91.8594 46.2482C91.8594 50.3048 94.8304 51.5607 99.6791 51.5607C103.77 51.5607 106.442 50.7035 107.203 48.1951H112.979C112.055 53.903 106.94 56.2786 99.6824 56.2786C91.6301 56.2786 86.2197 53.3748 86.2197 46.2515C86.2197 39.1282 91.6301 36.1912 99.6824 36.1912V36.1879Z" fill="white"/>
<path d="M141.522 45.1949L141.456 55.9496H135.779V47.3412C135.779 43.2181 134.394 41.0718 129.741 41.0718C125.946 41.0718 121.855 43.0187 120.107 45.062V55.9496H114.464V29.5563H120.107V39.9156C122.878 37.7394 126.707 36.1878 131.426 36.1878C136.607 36.1878 141.456 38.0351 141.522 45.1949Z" fill="white"/>
<path d="M163.632 48.9858H169.242C167.956 53.9329 163.137 56.2752 155.945 56.2752C148.754 56.2752 142.812 53.3714 142.812 46.2482C142.812 39.1249 148.388 36.1879 156.274 36.1879C163.665 36.1879 169.571 38.7262 169.571 47.5672H148.584C149.212 50.667 152.18 51.6903 155.942 51.6903C159.704 51.6903 162.21 50.966 163.629 48.9858H163.632ZM148.783 43.9723H163.532C162.575 41.2346 159.804 40.4771 156.241 40.4771C152.379 40.4771 149.674 41.2346 148.783 43.9723Z" fill="white"/>
<path d="M169.708 23.7056H57.3037V28.038H169.708V23.7056Z" fill="#101EF1"/>
</svg>
