<svg width="43" height="34" viewBox="0 0 43 34" fill="none" xmlns="http://www.w3.org/2000/svg">
<path d="M42.0377 3.97342C40.5223 4.64488 38.8945 5.09856 37.1832 5.30363C38.949 4.24707 40.27 2.58417 40.8998 0.625213C39.2409 1.6106 37.4252 2.30421 35.5318 2.67588C34.2585 1.31639 32.5721 0.415295 30.7342 0.1125C28.8963 -0.190294 27.0099 0.12215 25.3678 1.00132C23.7257 1.8805 22.4198 3.27721 21.6529 4.97462C20.8859 6.67203 20.7008 8.57516 21.1263 10.3885C17.7649 10.2198 14.4764 9.34606 11.4745 7.82414C8.47251 6.30221 5.82411 4.16608 3.70114 1.55436C2.97525 2.80654 2.55785 4.25833 2.55785 5.8045C2.55704 7.1964 2.89981 8.56698 3.55574 9.79464C4.21168 11.0223 5.16049 12.0691 6.31801 12.8421C4.9756 12.7994 3.6628 12.4366 2.48889 11.7841V11.893C2.48876 13.8452 3.16404 15.7373 4.40015 17.2483C5.63627 18.7593 7.35708 19.7961 9.2706 20.1827C8.02529 20.5198 6.71968 20.5694 5.45237 20.3279C5.99226 22.0077 7.0439 23.4765 8.46008 24.5289C9.87625 25.5813 11.5861 26.1645 13.3502 26.1968C10.3555 28.5476 6.65716 29.8228 2.85003 29.8172C2.17563 29.8174 1.50181 29.778 0.832031 29.6993C4.69649 32.184 9.195 33.5026 13.7893 33.4975C29.3417 33.4975 37.8438 20.6165 37.8438 9.44488C37.8438 9.08193 37.8347 8.71535 37.8184 8.3524C39.4721 7.15644 40.8997 5.67546 42.034 3.97886L42.0377 3.97342Z" fill="white"/>
</svg>
